<?xml version="1.0" standalone="no"?><!DOCTYPE svg PUBLIC "-//W3C//DTD SVG 1.1//EN" "http://www.w3.org/Graphics/SVG/1.1/DTD/svg11.dtd"><svg t="1698589032890" class="icon" viewBox="0 0 1024 1024" version="1.1" xmlns="http://www.w3.org/2000/svg" p-id="9347" xmlns:xlink="http://www.w3.org/1999/xlink" width="128" height="128"><path d="M688 947.2c0-2.4 0.8-4.8 0-7.2-1.6-2.4-2.4-4-4-5.6-4-4.8-8-8.8-12.8-13.6l-47.2-48 36.8-37.6 20-21.6c3.2-3.2 7.2-9.6 7.2-14.4v-3.2c0-7.2-3.2-11.2-10.4-12.8l1.6 0.8h-5.6c-4.8 0-18.4 12.8-21.6 16.8-12 12-20 23.2-36 35.2V740.8c0-8.8-4.8-12.8-13.6-12.8H600c-8.8 0-16 4-16 12.8v207.2c0 8.8 7.2 12 16 12h2.4c8.8 0 13.6-4 13.6-12v-36.8l24 23.2c7.2 7.2 14.4 12 20.8 18.4 3.2 3.2 9.6 7.2 14.4 7.2h2.4c8 0 10.4-4 12-10.4l-1.6 0.8v-3.2zM1000.8 784h-3.2c-17.6 0-33.6 4.8-48 15.2-24 17.6-37.6 40.8-37.6 71.2v78.4c0 8.8 3.2 11.2 12 11.2h2.4c8.8 0 17.6-3.2 17.6-11.2v-73.6c0-16 3.2-31.2 15.2-43.2 9.6-9.6 21.6-17.6 35.2-17.6 10.4 0 22.4-2.4 22.4-15.2 0-9.6-7.2-15.2-16-15.2z m-123.2 40c-8.8-14.4-20.8-25.6-36-32.8-28-13.6-57.6-15.2-84.8 0.8l-4 2.4c-11.2 6.4-20.8 14.4-28 24.8-20.8 30.4-23.2 64.8-4.8 96.8l1.6 3.2c8 13.6 18.4 24.8 32 32 28.8 16 60 17.6 88.8 1.6l2.4-1.6c8-4.8 9.6-12.8 5.6-20.8-1.6-3.2-4.8-5.6-8-7.2h-1.6c-5.6-0.8-20.8 5.6-26.4 8-11.2 1.6-24 2.4-35.2-1.6l60.8-52.8c8.8-8 18.4-16.8 28-24 8-6.4 16-15.2 9.6-26.4v-2.4z m-55.2 28.8l-68 58.4c-2.4-2.4-4-5.6-5.6-8-4.8-8-8-17.6-8-27.2-0.8-24 8-44 29.6-56 16-9.6 33.6-11.2 51.2-4.8 8.8 3.2 19.2 8.8 24.8 16.8-8 7.2-16.8 13.6-24 20.8zM176 728h-2.4c-8.8 0-13.6 3.2-13.6 12v64.8c-16-14.4-35.2-20-57.6-20H96c-15.2 0-29.6 2.4-43.2 10.4-28.8 16.8-44.8 41.6-44.8 75.2v6.4c0 15.2 4 28 12 41.6 16.8 28.8 43.2 43.2 76 43.2h6.4c15.2 0 31.2-2.4 44-9.6 28.8-16.8 45.6-41.6 45.6-74.4v-136c0-10.4-7.2-13.6-16-13.6z m-24.8 174.4c-12 20-29.6 31.2-52.8 31.2-9.6 0-19.2-2.4-27.2-7.2-20.8-11.2-32.8-29.6-32.8-53.6 0-8.8 1.6-16.8 5.6-24.8 11.2-23.2 29.6-36 55.2-36 12.8 0 24 4 33.6 11.2 16.8 12 26.4 28 26.4 48.8 0.8 11.2-2.4 20.8-8 30.4zM300.8 784H296c-15.2 0-30.4 2.4-43.2 10.4-28.8 16.8-44.8 41.6-44.8 75.2v6.4c0 15.2 4 28 12 41.6 16.8 28.8 43.2 43.2 76.8 43.2h6.4c15.2 0 30.4-2.4 44-9.6 28.8-16.8 45.6-41.6 45.6-74.4v-6.4c0-14.4-4.8-26.4-11.2-38.4-17.6-32-45.6-48-80.8-48z m51.2 118.4c-12 19.2-28.8 31.2-52 31.2-10.4 0-20.8-2.4-30.4-8-20-12-31.2-28.8-31.2-52 0-8.8 1.6-16.8 5.6-24.8 11.2-23.2 29.6-36 55.2-36 12 0 22.4 3.2 32 9.6 17.6 12 28 28.8 28 50.4 0.8 9.6-1.6 20-7.2 29.6z m196-107.2l-0.8 0.8c-13.6-8.8-28.8-12-44.8-12H496c-15.2 0-30.4 2.4-43.2 10.4-28.8 16.8-44.8 41.6-44.8 74.4v6.4c0 8 1.6 15.2 3.2 23.2 12.8 44 47.2 68.8 93.6 65.6 12.8-0.8 47.2-4.8 47.2-24v-3.2c0-7.2-5.6-13.6-12-15.2l-0.8-1.6h-5.6l-1.6 2.4c-7.2 3.2-19.2 9.6-27.2 9.6-9.6 0-20 0-28.8-4.8-23.2-11.2-36.8-29.6-36.8-55.2 0-8.8 1.6-16.8 5.6-24.8 11.2-22.4 29.6-36.8 55.2-36 4.8 0 13.6 2.4 18.4 4.8 4 1.6 14.4 8 19.2 8h1.6l0.8-1.6c7.2-1.6 12.8-7.2 12.8-14.4v-3.2c0-3.2-1.6-5.6-3.2-8l-1.6-1.6zM46.4 545.6l0.8 1.6c63.2 107.2 173.6 152 294.4 152 233.6 0 426.4-104.8 514.4-324.8 59.2 3.2 120-14.4 148.8-71.2l7.2-14.4-14.4-8c-34.4-20-80-22.4-118.4-11.2-4.8-41.6-32-77.6-64-103.2l-12.8-10.4-10.4 12.8c-21.6 24.8-28 66.4-24.8 98.4 2.4 23.2 9.6 47.2 24 66.4-11.2 6.4-23.2 15.2-34.4 19.2-22.4 8-47.2 16-71.2 16H632V256H528V56H408v96H208v104H104v112H14.4l-1.6 12c-4 51.2 2.4 100.8 24 148l9.6 17.6zM528 280h88v88H528V280zM424 72h88v88H424V72z m0 104h88v88H424V176z m0 104h88v88H424V280zM320 176h88v88H320V176z m0 104h88v88H320V280z m8.8 249.6c0 13.6-11.2 24.8-24.8 24.8-13.6 0-24.8-11.2-24.8-24.8 0-13.6 11.2-24.8 24.8-24.8 13.6 0.8 24.8 11.2 24.8 24.8zM224 176h80v88H224V176z m0 104h80v88H224V280z m-104 0h88v88H120V280z m19.2 304c12.8 0 25.6 0 37.6-0.8 31.2-1.6 58.4-5.6 80.8-12 18.4 42.4 52 81.6 112 110.4l-28 0.8c-126.4-0.8-194.4-43.2-250.4-99.2 16.8 0.8 32.8 0.8 48 0.8zM304 547.2c9.6 0 17.6-8 17.6-17.6 0-2.4-0.8-4.8-1.6-6.4-1.6 2.4-3.2 4-6.4 4-4 0-7.2-3.2-7.2-7.2 0-2.4 1.6-4.8 3.2-6.4-0.8-0.8-3.2-1.6-5.6-1.6-9.6 0-17.6 8-17.6 17.6 0.8 9.6 8 17.6 17.6 17.6z" fill="#019BC6" p-id="9348"></path></svg>