<?xml version="1.0" standalone="no"?><!DOCTYPE svg PUBLIC "-//W3C//DTD SVG 1.1//EN" "http://www.w3.org/Graphics/SVG/1.1/DTD/svg11.dtd"><svg t="1698590531948" class="icon" viewBox="0 0 1024 1024" version="1.1" xmlns="http://www.w3.org/2000/svg" p-id="27809" xmlns:xlink="http://www.w3.org/1999/xlink" width="128" height="128"><path d="M924.61 972.57c0.07-2 0.2-4.08 0.2-6.12q0-95.58-0.11-191.18c0-4.62 1.28-5.57 5.68-5.54 31.18 0.2 62.37 0.11 93.55 0.12v57.33q-20.73-0.06-41.46-0.13c-11.21 0-11.11 0-10.77 11.05 0.09 2.7 0.87 3.53 3.52 3.46 5.8-0.17 11.62 0.13 17.41-0.12 3.23-0.15 4 1 4 4.06-0.15 13.65-0.06 27.3-0.06 41 0 11.55 0 11.55-11.77 11.55-13.73 0-13.64 0-13.08 13.9 0.11 2.79 1.06 3.38 3.6 3.37 16.21-0.09 32.42 0 48.63 0 0 18.08-0.06 36.17 0.07 54.26 0 2.56-0.58 3.15-3.14 3.14q-48.14-0.23-96.27-0.15z m5.55-101.5v91.62c0 2.52-0.67 4.89 3.62 4.86 27.13-0.2 54.26-0.15 81.39 0 3 0 3.65-1 3.62-3.8-0.14-12.63-0.22-25.26 0-37.88 0.08-4-0.93-5.22-5-5.19-14.5 0.13-29-0.21-43.51-0.21-2.73 0-3.89-0.56-3.78-3.61 0.24-6.65 0.21-13.31 0-20-0.09-3 0.61-4.24 3.92-4.08 5.79 0.29 11.6 0 17.4 0.13 2.58 0.07 3.56-0.56 3.53-3.37-0.14-13.13-0.16-26.27 0-39.41 0-3.08-1.12-3.63-3.83-3.55-5.8 0.17-11.61-0.12-17.4 0.12-3 0.12-3.73-1-3.62-3.76a144.67 144.67 0 0 0 0-15.86c-0.31-4.32 0.71-5.83 5.45-5.71 14.15 0.37 28.32 0 42.48 0.2 3.19 0 4.46-0.63 4.4-4.18q-0.35-18.95 0-37.88c0.07-3.72-1.15-4.47-4.62-4.45-26.28 0.14-52.56 0.18-78.84 0-4.33 0-5.31 1.27-5.29 5.43 0.17 30.18 0.08 60.38 0.08 90.58z" fill="#F9E807" p-id="27810"></path><path d="M930.16 871.07c0-30.2 0.09-60.4-0.09-90.6 0-4.16 1-5.46 5.29-5.43 26.28 0.21 52.56 0.17 78.84 0 3.47 0 4.69 0.73 4.62 4.45q-0.36 18.93 0 37.88c0.06 3.55-1.21 4.21-4.4 4.18-14.16-0.15-28.33 0.17-42.48-0.2-4.74-0.12-5.76 1.39-5.45 5.71a144.67 144.67 0 0 1 0 15.86c-0.11 2.8 0.61 3.88 3.62 3.76 5.79-0.24 11.6 0 17.4-0.12 2.71-0.08 3.87 0.47 3.83 3.55-0.17 13.14-0.15 26.28 0 39.41 0 2.81-1 3.44-3.53 3.37-5.8-0.16-11.61 0.16-17.4-0.13-3.31-0.16-4 1.06-3.92 4.08 0.21 6.65 0.24 13.31 0 20-0.11 3 1 3.6 3.78 3.61 14.51 0 29 0.34 43.51 0.21 4.09 0 5.1 1.23 5 5.19-0.25 12.62-0.17 25.25 0 37.88 0 2.79-0.58 3.81-3.62 3.8-27.13-0.12-54.26-0.17-81.39 0-4.29 0-3.62-2.34-3.62-4.86q0.03-45.79 0.01-91.6z" fill="#030301" p-id="27811"></path><path d="M608.2 972.57c0-18.41 0-36.83 0.16-55.25 0-3-0.72-3.43-3.52-2.34a302 302 0 0 1-67.15 17c-11.93 1.69-24.05 3-36-0.42h5.1c16.13 0.8 32.09-0.56 47.53-5.3 40.35-12.37 80.27-26.07 120.11-40 7-2.45 14.05-4.93 21.07-7.39a6.88 6.88 0 0 0-3.79-0.7c-33.87 2.21-67.74 4-101.7 3.59a153.83 153.83 0 0 1-33-3.74c-7.31-1.69-13.49-5-14.22-13.74 7.62 7.15 17.29 9.22 27.1 10.72 11 1.68 22.09 1.59 33.15 2.12 4.4 0.2 5.35-1.42 5.32-5.56-0.16-32.07 0-64.14-0.21-96.21 0-4.89 1.49-5.84 6-5.76 14.15 0.28 28.32 0.35 42.47 0 5-0.13 5.79 1.56 5.74 6-0.21 20.81-0.11 41.63 0 62.44 0 1.54-1 3.82 1.16 4.49 3.62 1.14 3.28-1.66 3.28-3.89 0-21 0.19-42-0.13-62.94-0.07-5 1.33-6.21 6.21-6.1 14.66 0.34 29.34 0.17 44 0.09 2.74 0 4.32 0.17 4.31 3.72q-0.16 98.76-0.11 197.54a9.66 9.66 0 0 1-0.23 1.51h-54.28q0.1-37.8 0.17-75.61c0-1.25 0.86-3.43-1.87-3.16-2.2 0.22-2.59 1.76-2.58 3.67q0.12 37.54 0.18 75.1z m56.48-96.92c15.84-0.72 31.69-1.51 47.54-2.1 2.82-0.1 3.71-0.9 3.7-3.8q-0.15-45.29 0-90.58c0-3.63-1.37-4.12-4.45-4.08-11.43 0.14-22.87 0.22-34.29 0-4-0.09-5.2 0.94-5.15 5.05 0.22 19.44 0.09 38.89 0.09 58.34 0 10.14 0 9.94-10.17 10.18-4.05 0.1-5.12-1.08-5.09-5.1 0.2-21-0.06-42 0.22-62.94 0.06-4.66-1.34-5.67-5.73-5.54-10.91 0.32-21.84 0.29-32.75 0-4.07-0.11-5.12 1.07-5.1 5.1 0.17 29.85 0.09 59.71 0.09 89.56 0 7.28 0 7.12 7.06 7.06 14.68-0.14 44.02-0.8 44.03-1.15z m50.93-0.66c-13.81 5.9-27.58 10.67-41.34 15.43-2.58 0.9-2.11 2.76-2.11 4.53 0 22.83 0.07 45.65-0.1 68.48 0 3.6 1.31 4.12 4.42 4.08 11.58-0.15 23.17-0.24 34.75 0 3.88 0.1 4.74-1 4.72-4.77-0.17-27.77-0.09-55.53-0.1-83.3 0-1.26-0.14-2.57-0.24-4.44zM657 932.09V899.9c0-2.22-0.08-3.62-3.07-2.55-12.47 4.45-25 8.73-37.54 13-2 0.7-2.84 1.87-2.83 4.12q0.13 24.78 0 49.55c0 2.71 0.84 3.48 3.48 3.45 12.1-0.12 24.19-0.14 36.28 0 2.94 0 3.75-0.88 3.71-3.75-0.14-10.51-0.03-21.07-0.03-31.63zM821.19 972.57c-1.2-12.9-4.34-25.47-6.71-38.17Q799.36 853.28 784 772.22c-0.12-0.64-0.17-1.28-0.31-2.38h45.2c11.37 0 11.19 0 12.78 11.41 3.4 24.22 7 48.4 11.19 72.63q3.63-24.75 7.25-49.48c1.47-10.12 2.95-20.23 4.34-30.36 0.39-2.85 1.19-4.36 4.69-4.31 15.87 0.24 31.74 0.17 47.61 0 3.16 0 4 0.54 3.37 4q-18.78 98.37-37.31 196.77a17.34 17.34 0 0 0-0.15 2z m30.88-5.12c7.17 0 14.34-0.14 21.5 0.06 3.18 0.09 4.67-0.46 5.29-4.13 2.54-14.94 5.57-29.79 8.38-44.68q13.15-69.78 26.35-139.54c0.58-3 0.57-4.16-3.05-4.1-12.45 0.22-24.9 0.12-37.36 0.05-2.35 0-3.6 0.37-4 3.19-2.91 20.93-6 41.82-9.1 62.72-0.79 5.39-1.43 10.82-2.45 16.17-0.49 2.57-1.87 4.83-5.09 4.8-2.81 0-4.39-1.59-5-4.23-0.3-1.32-0.55-2.66-0.75-4-3.68-24.94-7.41-49.88-10.94-74.84-0.43-3.06-1.44-3.88-4.43-3.84-12.29 0.17-24.58 0.29-36.85 0-4.49-0.12-4.57 1.65-3.92 5.08q17.39 91.59 34.57 183.21c0.66 3.55 2.08 4.3 5.34 4.2 7.18-0.28 14.35-0.12 21.51-0.12z" fill="#F9E807" p-id="27812"></path><path d="M729 972.57q0-98.51-0.1-197c0-4.67 1.15-6 5.83-5.84 14.15 0.32 28.31 0.17 42.47 0.08 2.75 0 4.29 0.19 4.28 3.72q-0.21 99.27-0.18 198.54a2.89 2.89 0 0 1-0.08 0.5z m5.21-101.93c0 30.86 0 61.72-0.06 92.58 0 3.2 0.65 4.4 4.14 4.32 11.25-0.23 22.51-0.21 33.76 0 3.32 0.06 4.23-0.85 4.22-4.21q-0.15-91.8 0-183.61c0-4-1.23-4.75-4.9-4.67-10.74 0.24-21.49 0.28-32.22 0-4.08-0.11-5.07 1.08-5.05 5.09 0.22 30.15 0.14 60.33 0.14 90.5z" fill="#FEEC00" p-id="27813"></path><path d="M542.84 864.42c0.73 8.72 6.91 12.05 14.22 13.74a153.83 153.83 0 0 0 33 3.74c34 0.42 67.83-1.38 101.7-3.59a6.88 6.88 0 0 1 3.79 0.7c-7 2.46-14 4.94-21.07 7.39-39.84 13.89-79.76 27.59-120.11 40-15.44 4.74-31.4 6.1-47.53 5.3-1.7-0.09-3.4 0-5.1 0A355.66 355.66 0 0 1 422 905.05c-43.68-20.31-82.29-47.48-113.8-84.18-21-24.46-33.91-53.19-44-83.46a348.31 348.31 0 0 1-17.38-133.51c2.67-42.32 17.51-80.21 42.25-114.4 2.85-3.94 7.18-6.26 10.7-9.46 0.88-0.8 2.87-1.42 1.74-3.07-0.84-1.23-2.2 0-3.2 0.37-23.52 8.72-47.5 15.75-72.39 19.37a124.24 124.24 0 0 1-13.71 1.45 392.14 392.14 0 0 1-70.9-4.1c-5.06-0.75-7.76-3.35-9.45-7.91-4.09-11-8.44-21.91-12.57-32.9a198.77 198.77 0 0 0-47.83-72.9c-18-17.66-35.88-35.52-49.73-56.89C8.2 302.57-0.75 280.31 0.05 254.93a94.39 94.39 0 0 1 6.81-31.81c7.37-18.73 15.81-36.91 26.5-54a42.42 42.42 0 0 1 15.22-14.8c5.57-3.16 11.18-3.18 17.28-1.86 26 5.63 50 2.67 70.41-16.35 10.77-10 20.28-21.19 29.94-32.22 15.42-17.6 31.15-34.89 49.84-49.16 4-3.08 7.91-3.73 12.73-3.2A550.17 550.17 0 0 1 324.29 71c18 5.3 36.07 10.72 52.49 19.71 27.94 15.27 57.44 27.5 84.84 43.67 17.14 10.11 33.68 21.24 51.35 30.51 4.37 2.29 7.23 1.81 10.79-1a223 223 0 0 0 19.74-17.09c26.24-26.53 58.2-34 94.54-31.22 33.11 2.58 57.66 19 78.54 42.8a334.92 334.92 0 0 1 48.19 72c4.56 9.14 9.31 18.17 13.84 27.32 4.18 8.44 3.75 16.1-0.53 25.15-10.48 22.18-17.91 45.61-23.36 69.57-2.53 11.12-4.21 22.43-6.31 33.64-0.72 3.85 0.14 6.9 3.51 9.34 14.68 10.71 22.86 25.6 28.48 42.6 3.85 11.63 11.2 21.75 16.65 32.72 2.42 4.87 4.73 9.84 7.61 14.45 9 14.5 10.42 30.34 8.79 46.8-0.85 8.7-0.79 8.67 7.64 7.58 10.34-1.35 19.39-6.26 28.65-10.47 7-3.18 14.18-5.74 21.41-8.29a11.14 11.14 0 0 1 11.48 1.88 58.75 58.75 0 0 1 16.7 21.71c2.67 6 0.61 12.86-0.55 19.18-10.19 55.73-30.39 107.22-64 153.27-10.71 14.66-24.87 23.72-41.35 29.36-42.16 14.42-81.61 6.93-118.57-16.5-3.79-2.4-5-1.72-7.18 1.52-5.37 7.92-11.32 15.43-19.88 20.26-13.27 7.49-27.43 6.9-41.82 4.6-12.15-1.94-23.79-4.6-31.26-15.86a104.1 104.1 0 0 1-9.47-18.61c-1.6-3.94-2.35-8.93-5.23-11.44-3-2.64-8 0.43-12.2 0.14-7.82-0.54-15.61-1.35-23.43-2a24.68 24.68 0 0 0-6.6 0.14c-6.67 1.33-9.44 8-5.73 13.52 6.19 9.19 11.8 18.79 19.14 27.14 12.55 14.25 31.74 24.42 52 27.39-17.27 4.71-32.16-1.07-47-6.21-15.38-5.31-27.37-15.49-38.25-28.22-0.31 19.26 3.58 36.74 12.25 53.11 1.27 2.4 3.93 2.45 6.07 3.37 19.73 8.48 40.24 11.22 63 7.76-5.79 5.9-12 7.22-18.18 8.15a140 140 0 0 1-18.86 1.4c-6.46 0.08-12.92-0.48-19.93-0.79 6 11.62 11.07 23.32 16.16 35 1.24 2.82 4.14 3.44 6.83 3.85 8.08 1.22 16.19 2.28 24.56 3.44L544.92 863c-0.92 0.21-2.19-0.25-2.08 1.42z m221.25-331a12.41 12.41 0 0 1 1-2.26c3.11-4.5 2.48-5.91-3.26-7.09a1 1 0 0 1 0-0.95c6.44 0.36 12.9 0.48 19.31 1.15 6.14 0.64 11.82 2.43 13.48 9.58 0.27 1.13 0.63 2 2 1.65s2.29-1 2.28-2.38c-0.08-11.69 1.41-23.66-5.14-34.34a185.63 185.63 0 0 1-13-24.29c-3.09-7.27-7.12-12.46-15.51-13-0.45 0-0.9-0.33-0.31-1.34 1.63 0 3.48-0.06 5.32 0 2.35 0.1 3.1-0.52 1.93-2.92-6.46-13.29-12-27-17.45-40.71-1.21-4.87-1.22-10.39-7.31-13.68v17.37c-8.56-20.17-14.49-40.65-9.07-62.7 1.17-3.35 2.46-6.66 3.5-10.05 6.87-22.2 16.74-43.46 21.41-66.46 3-14.72 1-27.79-6.27-40.77-19-34.17-42.37-65-69.07-93.51-9.94-10.61-21.07-17.85-35.81-19.55 1.09 3.41 3.83 5.74 5.92 8.49-2.13 1.33-4.29 0.72-6.39 0-3-1.1-6-2.31-9-3.5-19.23-7.63-38.34-7.78-57.76-0.16-17.86 7-31.32 19.66-44.46 32.85-7.7 7.74-7.6 7.9 1.77 13.46a426.3 426.3 0 0 1 62 44.95 34.18 34.18 0 0 1 11.51 19.21c6.19 27.77 12.27 55.57 19.18 83.17 2.5 10 7.53 17.73 16 23.36 4.93 3.27 9.8 6.62 15.69 10.6a40.25 40.25 0 0 1-5.28-0.51c-5.45-1.37-11-2.55-16.26-4.39-3.84-1.33-4.26-0.1-4 3.28 0.52 5.91 2.75 11.66 1.78 17.72-2-2.24-2.25-5.22-2.9-7.91a708.59 708.59 0 0 0-30.79-97.84c-4.71-11.77-8.41-24.21-18.05-33.41-21.58-20.71-44.44-39.54-71.47-53.14-31-15.62-61.84-31.69-92.24-48.52-56.86-31.49-116.43-55.5-181-65.86-14.05-2.26-26.34 3-36.69 10.73-11 8.17-18.81 20.06-26.44 31.62-1 1.15-2.06 2.24-3 3.45-12.8 17-27.33 32.25-45.5 43.71-1.56 1-4.5 1.33-4 3.85s2.81 3.77 5.21 4.46c4.25 1.23 8.6 2.15 12.77 3.59 24.81 8.53 47.17 22 69.95 34.66 7.7 4.27 15.27 8.75 23.2 13.3-2.41 1.22-3.75-0.27-5.19-0.91-24.14-10.64-48.33-21.18-73-30.64-33.22-12.75-68-15.07-103-15.76-2.43-0.05-3.66 1.37-5.09 2.85a151.39 151.39 0 0 0-22.07 28.74c-11 18.77-19.2 38.18-16.66 60.91 3 27.24 13.25 51.18 30 72.69 15 19.32 32.2 36.64 49.82 53.51 14.17 13.57 24 29.49 29.17 48.38 0.67 2.47 1.43 4.91 2.24 7.33 3.83 11.46 7.29 23.06 13.3 33.67 2 3.58 4.51 5.22 8.91 5.29 18.57 0.32 37.2-0.53 55.7 1.89 7.14 0.93 14.31 1.45 21.42 0.3 26.35-4.26 51.57-13 76.53-21.82 20.16-7.14 39.88-15.42 60.42-21.69 35.72-10.91 72-19.28 108.49-27 3.52-0.74 3.72 0.15 3 3.09-1.73 7.29-3.49 14.58-4.85 21.93-5.15 27.71-2.35 55.35 0.39 83.06 1.18 11.9 7.05 19.91 16.22 26.36a132.88 132.88 0 0 0 36.13 17.59c6.05 2 12.12 3.86 18.54 5.89-1 1.84-1.87 3.3-2.71 4.75-6.76 11.7-13 23.67-14.09 37.44-1.54 19.83 7.81 35 21.4 48.26 3.51 3.44 8.15 5.72 10.72 10.09 6.92 11.72 13.61 23.54 19.08 36 5.78 13.2 14.14 24.1 28.38 29.17a37 37 0 0 0 19.08 1.66c12.27-2 22.85-7.5 32.35-15.33 8-6.62 7.89-6.47 1.53-14.44-2.31-2.9-3.85-2.42-6.08-0.34a35.35 35.35 0 0 0-7.9 11.2c-3 6.54-8 9.15-15.14 8.88a52.71 52.71 0 0 1-20.14-5.08c-1.62-0.74-3.17-2.45-5.62-0.88l15.7 11.4c-5.1 1.73-9.42-0.27-13.73 0.18-7.08-2.63-9.34-9.25-12.46-15.13-2.85-5.37-2.2-10.11 1.68-15 11.41-14.5 23.37-28.74 27.17-47.67 2.33 0.85 2.72 3 4.26 4.06 0.29 1.8 1.68 2.92 2.71 4.22 22.34 28 49.75 49.28 82.79 63.2 19.77 8.33 40.24 9.64 61.18 5.94 22.18-3.92 38.24-17.5 51.71-34.24 31.59-39.27 52.25-83.55 59.18-133.79 1.36-9.86 1.64-19.67-4.66-28.33-1.52-3.27-4.37-4-7.62-4-6.73 0.06-12.57 2.67-18 6.36-6.12 4.13-12.59 7.91-20 8.42a217.93 217.93 0 0 1-26.56 0.07c-3.48-0.2-4.72 0.67-5.83 3.7-3.92 10.7-8.46 21.18-12.09 32-3.32 9.84-9.1 17.78-16.52 24.71-2.59 2.43-4.57 5.62-9.21 8 1.55-2.6 2.33-4 3.22-5.36 6.74-10.12 11.27-21.34 16-32.45 0.62-1.46 2.53-3.78-1.12-4.68-8.23-2-16.2-3.68-23.7 2.52-5.28 4.36-10.46 8.73-14.7 14.14-3 3.87-11 12.5-11.25 12.21 4.8-8 10.77-17.55 15.6-25.56 3.78-6.28 7.76-12.33 16.65-11.68-11.5-3.88-22.6-6.14-32.35 3.54-2.78 2.76-5.72 5.34-8.61 8-1.27 1.16-2.36 2.84-4.6 2.07 5.48-7.64 10.56-15.3 16.69-22.18a8.37 8.37 0 0 1 7.49-3.22 140.28 140.28 0 0 1 30.1 5.16c1.69 0.51 4 0.69 3.79 3.29-0.34 4.62 3.62 4.61 6.17 5.21s2.27-2.72 3.12-4.3a41.83 41.83 0 0 0 2.21-6.2c1.45-4.26-2.07-1.84-3.32-2.47l-7.06-2.58c-1.85-1.83-4.56-1.84-6.65-3.12-1.85-1.13-4.78-0.55-5.53-3.44 1.83 0.1 3.66 0.28 5.49 0.27 1.62 0 3.63 0.64 4.64-1.12 1.87-3.25 3.15-6.87 2-10.57-1-3.18-4.14-3.54-7-3.91a11.63 11.63 0 0 0-6.04 0.31zM292.74 697.17l0.95 1c17 15.46 36.19 27.72 56.78 37.79 39.12 19.12 80.83 30.27 123.09 39.7 3.25 0.72 3.68-0.29 3.7-3.13a116.07 116.07 0 0 1 4.25-28.75c0.81-3.12 3.48-7 2.43-9.07-1.46-2.86-6.17-1.41-9.46-2-52.46-9.2-99-31.29-140.63-64.25-16.37-13-30.89-27.79-45-43.08-12.37-15.73-24.28-31.76-32.32-51.49-6.09 28.9-5.86 56.71-3.4 84.63a11.77 11.77 0 0 0 5.17 9.25c4.66 3.41 8.76 7.57 13.23 11.24 7.21 5.93 13.51 12.92 21.25 18.23zM545 920.52a4.85 4.85 0 0 0 1.35-0.66c4.65-4.63 5.28-10.39 0.87-17.76s-9.71-14.36-14.48-21.6c-1.3-2-2.49-1-3.88-0.45-22.27 9.38-45.69 13-69.65 13.87-12.59 0.43-25.19 0.61-37.79 0.91h-11.59a249.12 249.12 0 0 0 32.07 15.78c25.39 10.22 51.66 16.25 79.17 15.58 8.28-0.19 16.73-0.46 23.93-5.67zM367.6 841.4a39.93 39.93 0 0 0 4.57 2.09 308.63 308.63 0 0 0 121.58 13.11c7-0.62 14.06-1 21-3-7.45-11.86-14.76-23.33-21.84-34.94-1.4-2.29-3.17-2.16-5.19-2.18-42.91-0.46-83.91-10.35-124-24.8-17.93-6.45-35.15-14.54-52.67-22-12-6.54-24.26-12.74-36.06-20-0.18 0.77-0.41 1.15-0.3 1.38 8.57 19.83 16.85 39.82 29.45 57.57 3.44 4.84 7.05 9.6 12.65 12.34a401.16 401.16 0 0 0 39.77 17.11c3.54 1.32 7.05 3.17 11.04 3.32z m-62.72-323.8c0.46 5.46 2.06 10.69 3.33 16 9.63 40.13 28.48 75.07 61.26 100.7 35.58 27.83 72.71 53.58 113 74.45 10.94 5.67 10.88 5.64 15.4-6 0.79-2 0.72-2.92-1.37-3.87-17.94-8.14-29.35-23.27-39.42-39.07-16.19-25.41-30.5-52-44.25-78.81-19.67-38.37-37-77.71-48.43-119.46-0.56-2.06-1.06-3.73-4.06-2.91-13.81 3.76-27.41 8-39.91 15.2-6.84 2.72-12.71 7.06-18.72 11.17a4.3 4.3 0 0 0-2.09 4.74c1.62 9.26 2.67 18.72 5.26 27.86z m-2-40.94l-0.36-0.66c-0.12 0.11-0.34 0.25-0.32 0.33a2.69 2.69 0 0 0 0.32 0.69z" fill="#030301" p-id="27814"></path><path d="M620.67 876.77c-7.06 0.06-7.06 0.22-7.06-7.06 0-29.85 0.08-59.71-0.09-89.56 0-4 1-5.21 5.1-5.1 10.91 0.28 21.84 0.31 32.75 0 4.39-0.13 5.79 0.88 5.73 5.54-0.28 21 0 42-0.22 62.94 0 4 1 5.2 5.09 5.1 10.17-0.24 10.17 0 10.17-10.18 0-19.45 0.13-38.9-0.09-58.34 0-4.11 1.17-5.14 5.15-5.05 11.42 0.26 22.86 0.18 34.29 0 3.08 0 4.47 0.45 4.45 4.08q-0.23 45.29 0 90.58c0 2.9-0.88 3.7-3.7 3.8-15.85 0.59-31.7 1.38-47.54 2.1-0.03 0.38-29.37 1.04-44.03 1.15zM715.61 875c0.1 1.88 0.24 3.19 0.24 4.49 0 27.77-0.07 55.53 0.1 83.3 0 3.78-0.84 4.87-4.72 4.77-11.58-0.28-23.17-0.19-34.75 0-3.11 0-4.45-0.48-4.42-4.08 0.17-22.83 0.08-45.65 0.1-68.48 0-1.77-0.47-3.63 2.11-4.53 13.73-4.81 27.53-9.58 41.34-15.47zM657 932.09c0 10.56-0.09 21.12 0 31.67 0 2.87-0.77 3.79-3.71 3.75-12.09-0.15-24.18-0.13-36.28 0-2.64 0-3.5-0.74-3.48-3.45q0.16-24.76 0-49.55c0-2.25 0.78-3.42 2.83-4.12 12.53-4.3 25.07-8.58 37.54-13 3-1.07 3.07 0.33 3.07 2.55 0.03 10.69 0.03 21.42 0.03 32.15zM852.07 967.45c-7.16 0-14.33-0.16-21.49 0.07-3.26 0.1-4.68-0.65-5.34-4.2q-17.12-91.64-34.57-183.21c-0.65-3.43-0.57-5.2 3.92-5.08 12.27 0.33 24.56 0.21 36.85 0 3 0 4 0.78 4.43 3.84 3.53 25 7.26 49.9 10.94 74.84 0.2 1.35 0.45 2.69 0.75 4 0.6 2.64 2.18 4.19 5 4.23 3.22 0 4.6-2.23 5.09-4.8 1-5.35 1.66-10.78 2.45-16.17 3.06-20.9 6.19-41.79 9.1-62.72 0.39-2.82 1.64-3.2 4-3.19 12.46 0.07 24.91 0.17 37.36-0.05 3.62-0.06 3.63 1.07 3.05 4.1q-13.31 69.8-26.37 139.59c-2.81 14.89-5.84 29.74-8.38 44.68-0.62 3.67-2.11 4.22-5.29 4.13-7.16-0.2-14.33-0.06-21.5-0.06zM734.24 870.64c0-30.17 0.08-60.35-0.09-90.52 0-4 1-5.2 5.05-5.09 10.73 0.3 21.48 0.26 32.22 0 3.67-0.08 4.91 0.67 4.9 4.67q-0.21 91.81 0 183.61c0 3.36-0.9 4.27-4.22 4.21-11.25-0.21-22.51-0.23-33.76 0-3.49 0.08-4.15-1.12-4.14-4.32 0.09-30.84 0.04-61.7 0.04-92.56z" fill="#030301" p-id="27815"></path><path d="M642.89 375.67c1-6.06-1.26-11.81-1.78-17.72-0.3-3.38 0.12-4.61 4-3.28 5.29 1.84 10.81 3 16.26 4.39a40.25 40.25 0 0 0 5.28 0.51c-5.89-4-10.76-7.33-15.69-10.6-8.51-5.63-13.54-13.38-16-23.36-6.91-27.6-13-55.4-19.18-83.17a34.18 34.18 0 0 0-11.51-19.21 426.3 426.3 0 0 0-62-44.95c-9.37-5.56-9.47-5.72-1.77-13.46C553.52 151.63 567 139 584.84 132c19.42-7.62 38.53-7.47 57.76 0.16 3 1.19 6 2.4 9 3.5 2.1 0.76 4.26 1.37 6.39 0 1 1.18 2 2.34 2.9 3.56q35.65 47.45 71.26 94.93c4.22 5.65 9 10.9 10.26 18.46 3.91 23.76 1.55 47.41-0.66 71.08-1 11.3-2.27 22.58-3.41 33.87-5.42 22.05 0.51 42.53 9.07 62.7V402.9c6.09 3.29 6.1 8.81 7.31 13.68-0.23 0.24-0.7 0.51-0.67 0.71 1.39 9.59-0.52 19.34 1.33 28.92 1 5.29-1.22 8.81-6.44 10.42-0.82 0.25-1.63 0.41-1.75 1.73 3.93 1.42 8 2.73 11.89 4.32 7.49 3 15.76 4.2 19.74 13.36 4.8 11 11.41 21.31 12.45 33.73 0.86 10.37-2 13.14-10.4 12.35a46.82 46.82 0 0 0-8.7 0c-4.62 0.44-9.12-2.11-13.9-0.68 0.76 2 2.22 1.65 3.53 1.67a1 1 0 0 0 0 0.95c0.5 6.11-0.37 11.88-4.1 17-1 1.37-2.05 2.75-2.08 4.57l-0.73 0.55 0.79 0.46a1.31 1.31 0 0 1 0.92 0.25c5.89 5.11 13 7.12 20.52 8.06l7.06 2.58c0.51 1.61 2.19 1.67 3.32 2.47a41.83 41.83 0 0 1-2.21 6.2c-0.85 1.58-0.42 4.92-3.12 4.3s-6.51-0.59-6.17-5.21c0.2-2.6-2.1-2.78-3.79-3.29a140.28 140.28 0 0 0-30.1-5.16 8.37 8.37 0 0 0-7.49 3.22c-6.13 6.88-11.21 14.54-16.69 22.18 2.24 0.77 3.33-0.91 4.6-2.07 2.89-2.64 5.83-5.22 8.61-8 9.75-9.68 20.85-7.42 32.35-3.54-8.89-0.65-12.87 5.4-16.65 11.68-4.83 8-15.49 25.44-15.49 25.44s8.1-8.22 11.14-12.09c4.24-5.41 9.42-9.78 14.7-14.14 7.5-6.2 15.47-4.55 23.7-2.52 3.65 0.9 1.74 3.22 1.12 4.68-4.72 11.11-9.25 22.33-16 32.45-0.89 1.34-1.67 2.76-3.22 5.36 4.64-2.36 6.62-5.55 9.21-8 7.42-6.93 13.2-14.87 16.52-24.71 3.63-10.78 8.17-21.26 12.09-32 1.11-3 2.35-3.9 5.83-3.7a217.93 217.93 0 0 0 26.56-0.07c7.43-0.51 13.9-4.29 20-8.42 5.46-3.69 11.3-6.3 18-6.36 3.25 0 6.1 0.72 7.62 4-0.52 0.64-0.92 1.56-1.6 1.9-16.81 8.5-33.77 16.51-53.34 15.85-2.2-0.07-4.76-1.15-6.69 1-3.29-0.45-5.71-3.5-9.28-3.1a1.17 1.17 0 0 0 0-0.38c0-0.07-0.15-0.1-0.23-0.14l0.37 0.43a27.8 27.8 0 0 0 21.1 12.3c13.94 1.31 25.79-4.21 36.66-12.23 2.21-1.63 4.93-3.09 5.63-6.21l8.12-4.71a49.16 49.16 0 0 1-0.72 12.56c-2.92 15-5 30.08-9.54 44.71-7.33 23.34-19.9 43.79-33.56 63.84-11.27 16.54-23.16 32.42-39 44.81-15.28 11.95-32.4 18.93-52.32 18.06-19.27-0.84-36.29-7.94-52.59-17.49-20.17-11.82-38-26.79-56-41.46-3-2.47-5.24-6.45-9.82-6.78-1.54-1-1.93-3.21-4.26-4.06-3.8 18.93-15.76 33.17-27.17 47.67-3.88 4.92-4.53 9.66-1.68 15 3.12 5.88 5.38 12.5 12.46 15.13v2.75c-14.24-5.07-22.6-16-28.38-29.17-5.47-12.51-12.16-24.33-19.08-36-2.57-4.37-7.21-6.65-10.72-10.09-13.59-13.29-22.94-28.43-21.4-48.26 1.07-13.77 7.33-25.74 14.09-37.44 0.84-1.45 1.66-2.91 2.71-4.75-6.42-2-12.49-3.94-18.54-5.89a132.88 132.88 0 0 1-36.13-17.59c-9.17-6.45-15-14.46-16.22-26.36-2.74-27.71-5.54-55.35-0.39-83.06 1.36-7.35 3.12-14.64 4.85-21.93 0.7-2.94 0.5-3.83-3-3.09-36.48 7.73-72.77 16.1-108.49 27-20.54 6.27-40.26 14.55-60.42 21.69-25 8.84-50.18 17.56-76.53 21.82-7.11 1.15-14.28 0.63-21.42-0.3-18.5-2.42-37.13-1.57-55.7-1.89-4.4-0.07-6.88-1.71-8.91-5.29-6-10.61-9.47-22.21-13.3-33.67-0.81-2.42-1.57-4.86-2.24-7.33-5.14-18.89-15-34.81-29.17-48.38-17.62-16.87-34.79-34.19-49.82-53.51-16.73-21.51-26.94-45.45-30-72.69-2.54-22.73 5.7-42.14 16.66-60.91a151.39 151.39 0 0 1 22.07-28.74c1.43-1.48 2.66-2.9 5.09-2.85 35.05 0.69 69.82 3 103 15.76 24.64 9.46 48.83 20 73 30.64 1.44 0.64 2.78 2.13 5.19 0.91-7.93-4.55-15.5-9-23.2-13.3-22.78-12.64-45.14-26.13-69.95-34.66-4.17-1.44-8.52-2.36-12.77-3.59-2.4-0.69-4.73-2-5.21-4.46s2.44-2.87 4-3.85c18.17-11.46 32.7-26.67 45.5-43.71 0.9-1.21 2-2.3 3-3.45 28.26 7.65 56.56 15.41 84.67 23.71a2089.71 2089.71 0 0 1 244.08 88.7c10.19 4.46 19.7 9.48 27.85 17.42 27.79 27 49.65 58.62 71 90.68 9.33 14 18.67 28 28.15 41.94 0.69 1.04 1.07 4.37 3.81 1.93z m-55.14 28.62a1.71 1.71 0 0 0 0.19 0.46c0 0.06 0.21 0 0.33 0l-0.59-0.42a1.89 1.89 0 0 0-0.83-2.22c-2.43-5-5-9.92-7.26-15-2.83-6.27-7-11.92-8.58-18.75 0.58 0.3 1.35 1 1.71 0.85 1.51-0.72 0.22-1.62-0.07-2.41-4.2-11.32-8.44-22.62-12.62-33.94-5.85-15.81-12.18-31.33-21.22-45.71-7.56-12-17-19.74-31.86-21.66-16.41-2.14-32.86-3.37-49.32-4.66-2.17-1.45-4.63-0.74-7-0.92-6.78-0.5-13.78 0-20.32-1.56-37.34-8.7-74.56-17.87-111.83-26.85-10.68-2.57-21.38-5-32.07-7.55 9.23 4.82 18.83 8.58 28.34 12.53 42.41 17.61 85.08 34.54 129.55 46.3 6 1.59 7.62 4.83 8.16 10.08 0.52 5.08-1.28 9-6 11.06a145.61 145.61 0 0 1-13.87 5.08c-8.35 2.59-16.77 4.92-25.17 7.36a327 327 0 0 1 48.05 6.28c43 8.79 80.93 27.53 112.19 58.92 6.62 6.66 12.14 14.26 18.8 20.85a2 2 0 0 0 1.29 1.88z m115.88 132h-0.13c-0.56-2.64-3.2-2.89-4.94-4-2.8-1.81-4.18-3.35-3.57-7.24 1-6.65-1-13.08-3.79-19.19 1.24-0.43 2.68-0.42 3.47-1.5-26.66-8.49-50.64-2.09-73.94 13.86h4.82c5.25 2.12 5.65 6.47 5.3 11.26a8.38 8.38 0 0 0 0.74 2.94c1.79 5.49 1.75 10.68-1.15 16-2.22 4-4.8 8.09-5.94 13.62 8-6 15.15-11.57 24.08-14.45 13.69-4.41 27.74-6.23 42-7.1 1.69-0.11 3.93 0.89 4.72-1.77l7.1-0.24c1.63 1.52 3.81 1.54 4.41-0.34 0.54-1.74-1.68-1.91-3.18-1.85z m-98.5 123c9.18-2.27 17.8-6.11 26.55-9.59 0.09 0 0.08-0.31 0.12-0.48l7.86-0.69c-7.62-1-15-2-22.34-3.06-11-1.61-21.5 9.16-19.8 20.44z m59.44-211.75l7.94-1.87a55.88 55.88 0 0 0-6.78-1.1c-6.28-0.13-12.61-0.6-18.84 0-18.52 1.67-17.32-0.12-23.52 17.1-5.25 6.7-5.48 15.08-8.6 23.59 1.46-0.91 2-1.06 2.24-1.42 10.88-15.68 25.78-26.13 43.19-33.39 1.55-0.71 3.93-0.45 4.37-2.93z m-5.24-281.28c-3.3-2.62-6.68-5.15-9.9-7.88-11.67-9.87-24.86-16-41.12-16.86 1.74 1.06 2.85 1.76 4 2.42 14.09 8.09 25.45 19 35 32.16S663.68 204 673.1 217c8.79 12.18 16.72 24.7 23 38.32 3.89 8.5 7.73 17 11.76 25.44 0.33 0.69 0.09 3.75 2.6 1.72a20.49 20.49 0 0 0-0.37-8.1c-2.3-10.65-4.64-21.29-6.72-32-1.73-8.88-3.55-17.6-8.24-25.57-8.39-14.24-16.89-28.4-26.93-41.56-2.59-3.32-4.87-7.03-8.87-9.01z" fill="#FEEC00" p-id="27816"></path><path d="M642.89 375.67c-2.74 2.44-3.12-0.89-3.8-1.89-9.48-13.92-18.82-27.92-28.15-41.94-21.32-32.06-43.18-63.64-71-90.68-8.15-7.94-17.66-13-27.85-17.42A2089.71 2089.71 0 0 0 268 135c-28.15-8.34-56.45-16.1-84.81-23.67 7.63-11.56 15.44-23.45 26.44-31.62 10.35-7.68 22.64-13 36.69-10.73 64.58 10.36 124.15 34.37 181 65.86 30.4 16.83 61.21 32.9 92.24 48.52 27 13.62 49.89 32.43 71.54 53.11 9.64 9.2 13.34 21.64 18.05 33.41A708.59 708.59 0 0 1 640 367.76c0.64 2.69 0.85 5.67 2.89 7.91z" fill="#FBF493" p-id="27817"></path><path d="M320.39 473.81c12.5-7.18 26.1-11.44 39.91-15.2 3-0.82 3.5 0.85 4.06 2.91 11.39 41.75 28.76 81.09 48.43 119.46 13.75 26.83 28.06 53.4 44.25 78.81 10.07 15.8 21.48 30.93 39.42 39.07 2.09 0.95 2.16 1.84 1.37 3.87-4.52 11.64-4.46 11.67-15.4 6-40.25-20.87-77.38-46.62-113-74.45-32.78-25.63-51.63-60.57-61.26-100.7-1.27-5.29-2.87-10.52-3.32-16a256.67 256.67 0 0 1 12.18-34.24c1.38-3.02 4.1-5.72 3.36-9.53zM288.85 625.37c14.11 15.29 28.63 30.12 45 43.08 41.63 33 88.17 55 140.63 64.25 3.29 0.57 8-0.88 9.46 2 1.05 2.07-1.62 6-2.43 9.07a116.07 116.07 0 0 0-4.25 28.75c0 2.84-0.45 3.85-3.7 3.13-42.26-9.43-84-20.58-123.09-39.7-20.59-10.07-39.76-22.33-56.78-37.79l-0.95-1v0.06a42.21 42.21 0 0 0-0.17-6.07c-3.78-21.78-4.36-43.74-3.72-65.78zM311 769.7c17.52 7.42 34.74 15.51 52.67 22 40.12 14.45 81.12 24.34 124 24.8 2 0 3.79-0.11 5.19 2.18 7.08 11.61 14.39 23.08 21.84 34.94-6.89 2-14 2.4-21 3a308.63 308.63 0 0 1-121.58-13.11 39.93 39.93 0 0 1-4.57-2.09c-1.32-2.64-4.08-3.52-6.29-5-24.55-16.37-41.2-38.69-50.26-66.72z" fill="#FEEC00" p-id="27818"></path><path d="M738.39 357.57c1.14-11.29 2.36-22.57 3.41-33.87 2.21-23.67 4.57-47.32 0.66-71.08-1.24-7.56-6-12.81-10.26-18.46q-35.52-47.55-71.26-94.93c-0.92-1.22-1.93-2.38-2.9-3.56-2.09-2.75-4.83-5.08-5.92-8.49 14.74 1.7 25.87 8.94 35.81 19.55 26.7 28.51 50.06 59.34 69.07 93.51 7.22 13 9.26 26.05 6.27 40.77-4.67 23-14.54 44.25-21.38 66.51-1.04 3.39-2.33 6.7-3.5 10.05z" fill="#FBF493" p-id="27819"></path><path d="M625.79 663.28c4.58 0.33 6.79 4.31 9.82 6.78 18.07 14.67 35.88 29.64 56 41.46C708 721.07 725 728.17 744.25 729c19.92 0.87 37-6.11 52.32-18.06 15.84-12.39 27.73-28.27 39-44.81 13.66-20 26.23-40.5 33.56-63.84 4.58-14.63 6.62-29.75 9.54-44.71a49.16 49.16 0 0 0 0.72-12.56l-8.12 4.71c-4 0.85-7.46 3.18-11.12 4.94-10.61 5.11-21.71 7.88-33.54 7.34a16.8 16.8 0 0 1-9.54-2.95c1.93-2.19 4.49-1.11 6.69-1 19.57 0.66 36.53-7.35 53.34-15.85 0.68-0.34 1.08-1.26 1.6-1.9 6.3 8.66 6 18.47 4.66 28.33-6.93 50.24-27.59 94.52-59.18 133.79-13.47 16.74-29.53 30.32-51.71 34.24-20.94 3.7-41.41 2.39-61.18-5.94-33-13.92-60.45-35.25-82.79-63.2-1.03-1.33-2.42-2.45-2.71-4.25z" fill="#C7BD00" p-id="27820"></path><path d="M421.41 894.83c12.6-0.3 25.2-0.48 37.79-0.91 24-0.84 47.38-4.49 69.65-13.87 1.39-0.59 2.58-1.52 3.88 0.45 4.77 7.24 10 14.18 14.48 21.6s3.78 13.13-0.87 17.76a4.85 4.85 0 0 1-1.35 0.66c-14.86 2.68-29.82 2.42-44.7 0.69a219.3 219.3 0 0 1-48.94-11.43c-10.51-3.78-21.1-7.7-29.94-14.95z" fill="#FEEC00" p-id="27821"></path><path d="M288.85 625.37c-0.64 22-0.06 44 3.76 65.79a42.21 42.21 0 0 1 0.17 6.07c-7.74-5.31-14-12.3-21.25-18.23-4.47-3.67-8.57-7.83-13.23-11.24a11.77 11.77 0 0 1-5.17-9.25c-2.46-27.92-2.69-55.73 3.4-84.63 8.04 19.73 19.95 35.76 32.32 51.49zM311 769.7c9.09 28 25.74 50.35 50.34 66.7 2.21 1.48 5 2.36 6.29 5-4-0.15-7.5-2-11.12-3.3a401.16 401.16 0 0 1-39.8-17.1c-5.6-2.74-9.21-7.5-12.65-12.34-12.6-17.75-20.88-37.74-29.45-57.57-0.11-0.23 0.12-0.61 0.3-1.38 11.8 7.29 24.02 13.45 36.09 19.99z" fill="#FBF493" p-id="27822"></path><path d="M761.85 523.11c-1.31 0-2.77 0.32-3.53-1.67 4.78-1.43 9.28 1.12 13.9 0.68a46.82 46.82 0 0 1 8.7 0c8.37 0.79 11.26-2 10.4-12.35-1-12.42-7.65-22.68-12.45-33.73-4-9.16-12.25-10.32-19.74-13.36-3.92-1.59-8-2.9-11.89-4.32 0.12-1.32 0.93-1.48 1.75-1.73 5.22-1.61 7.46-5.13 6.44-10.42-1.85-9.58 0.06-19.33-1.33-28.92 0-0.2 0.44-0.47 0.67-0.71 5.43 13.74 11 27.42 17.45 40.71 1.17 2.4 0.42 3-1.93 2.92-1.84-0.08-3.69 0-5.32 0-0.59 1-0.14 1.32 0.31 1.34 8.39 0.49 12.42 5.68 15.51 13a185.63 185.63 0 0 0 13 24.29c6.55 10.68 5.06 22.65 5.14 34.34 0 1.37-1 2.1-2.28 2.38s-1.7-0.52-2-1.65c-1.66-7.15-7.34-8.94-13.48-9.58-6.42-0.74-12.88-0.86-19.32-1.22zM605.09 739.8v-2.75c4.31-0.45 8.63 1.55 13.73-0.18l-15.7-11.4c2.45-1.57 4 0.14 5.62 0.88a52.71 52.71 0 0 0 20.14 5.08c7.1 0.27 12.11-2.34 15.14-8.88a35.35 35.35 0 0 1 7.9-11.2c2.23-2.08 3.77-2.56 6.08 0.34 6.36 8 6.5 7.82-1.53 14.44-9.5 7.83-20.08 13.38-32.35 15.33a37 37 0 0 1-19.03-1.66z" fill="#C7BD00" p-id="27823"></path><path d="M421.41 894.83c8.84 7.25 19.43 11.17 29.94 14.95a219.3 219.3 0 0 0 48.94 11.43c14.88 1.73 29.84 2 44.7-0.69-7.19 5.21-15.64 5.47-23.92 5.67-27.51 0.67-53.78-5.36-79.17-15.58a249.12 249.12 0 0 1-32.07-15.78zM320.39 473.81c0.74 3.81-2 6.51-3.32 9.56a256.67 256.67 0 0 0-12.18 34.24c-2.6-9.15-3.65-18.58-5.31-27.89a4.3 4.3 0 0 1 2.09-4.74c6.01-4.11 11.88-8.45 18.72-11.17z" fill="#FBF493" p-id="27824"></path><path d="M764.09 533.41a11.63 11.63 0 0 1 6-0.37c2.9 0.37 6.07 0.73 7 3.91 1.14 3.7-0.14 7.32-2 10.57-1 1.76-3 1.12-4.64 1.12-1.83 0-3.66-0.17-5.49-0.27v0.19c-0.7-1.41-2-1-3.14-1l0.09 0.05c-0.6-1.3-1.46-2.51-1.29-4.05 0.85-3.5 1.31-7.12 3.47-10.15z" fill="#FEFEFE" p-id="27825"></path><path d="M764.09 533.41c-2.16 3-2.62 6.65-3.48 10.12-1.07 2.11-3 2.06-5 2.08 0-1.82 1.08-3.2 2.08-4.57 3.73-5.1 4.6-10.87 4.1-17 5.74 1.18 6.37 2.59 3.26 7.09a12.41 12.41 0 0 0-0.96 2.28zM777.14 554.93c-7.53-0.94-14.63-2.95-20.52-8.06 1.84-0.37 3.34 1.85 5.28 0.71l-0.09-0.05c0.61 1.68 1.66 2 3.14 1v-0.19c0.75 2.89 3.68 2.31 5.53 3.44 2.1 1.31 4.81 1.32 6.66 3.15zM787.52 560c-1.13-0.8-2.81-0.86-3.32-2.47 1.25 0.61 4.8-1.81 3.32 2.47z" fill="#C7BD00" p-id="27826"></path><path d="M292.74 697.17l0.95 1z" fill="#FBF493" p-id="27827"></path><path d="M302.91 476.66l-0.36 0.36a2.69 2.69 0 0 1-0.32-0.69c0-0.08 0.2-0.22 0.32-0.33z" fill="#FEFEFE" p-id="27828"></path><path d="M571 368.4c1.57 6.85 5.76 12.5 8.59 18.77 2.28 5.06 4.83 10 7.26 15l-0.38 0.32c-6.65-6.59-12.17-14.19-18.79-20.85-31.26-31.39-69.18-50.13-112.19-58.92a327 327 0 0 0-48.05-6.28c8.4-2.44 16.82-4.77 25.17-7.36a145.61 145.61 0 0 0 13.87-5.08c4.73-2 6.53-6 6-11.06-0.54-5.25-2.13-8.49-8.16-10.08-44.47-11.76-87.14-28.69-129.55-46.3-9.51-3.95-19.11-7.71-28.34-12.53 10.69 2.51 21.39 5 32.07 7.55 37.27 9 74.49 18.15 111.83 26.85 6.54 1.52 13.54 1.06 20.32 1.56 2.34 0.18 4.8-0.53 7 0.92l-18.88-0.11v-0.25 0.25l-38.15-0.73a8.68 8.68 0 0 0-5.76 0.56l5.8 1.23c22.57 4.51 45.5 6.68 68.16 10.58 15.09 2.6 30.22 5.26 44.15 12.07 2.35 1.15 7.06 1.53 6.08 4.78-1.12 3.64-5.49 1.49-8.16 1a36.82 36.82 0 0 0-26.08 4.34c-5.37 3.08-11 5.81-17.11 9.05 2.86 0.93 5 0.43 7.06 0.07a64.79 64.79 0 0 1 20.89 0.05c7.4 1.12 14.71 3 22.15 3.75 5.79 0.59 10.33 3 14.55 6.62 7.11 6 12.4 13.56 17.37 21.32 6.98 10.99 13.01 22.67 21.28 32.91z" fill="#FBF493" p-id="27829"></path><path d="M438.75 260.78l18.88 0.11c16.46 1.29 32.91 2.52 49.32 4.66 14.81 1.92 24.3 9.63 31.86 21.66 9 14.38 15.37 29.9 21.22 45.71 4.18 11.32 8.42 22.62 12.62 33.94 0.29 0.79 1.58 1.69 0.07 2.41-0.36 0.16-1.13-0.55-1.71-0.86-8.28-10.25-14.31-21.93-21.37-33-5-7.76-10.26-15.28-17.37-21.32-4.22-3.59-8.76-6-14.55-6.62-7.44-0.75-14.75-2.63-22.15-3.75a64.79 64.79 0 0 0-20.89-0.05c-2.05 0.36-4.2 0.86-7.06-0.07 6.16-3.24 11.74-6 17.11-9.05a36.82 36.82 0 0 1 26.08-4.34c2.67 0.51 7 2.66 8.16-1 1-3.25-3.73-3.63-6.08-4.78-13.93-6.81-29.06-9.47-44.15-12.07-22.66-3.9-45.59-6.07-68.15-10.58v-1.79l38.15 0.73zM702.4 538.44l-7.1 0.24c-19.39-0.32-38.55 1.06-57.1 7.27l-1-1c4.44-2.73 5.85-6.32 3.89-11.39a25.59 25.59 0 0 1-1.12-7.5c-0.65-9.87-0.61-9.89-10.45-8.73-1.33 0.16-2.63 0.57-4 0.86h-4.82c23.3-16 47.28-22.35 73.94-13.86-0.79 1.08-2.23 1.07-3.47 1.5-6.61 1.58-6.5 1.55-4.72 7.94 1 3.58 3 7.68 2.08 10.84-2.59 9 4.06 8.78 9 10.43a50.78 50.78 0 0 0 5.91 1.23h0.13c0.43 1.2-0.74 1.46-1.17 2.17z m-49.14-16.66c-7.7 0-9.84 2.34-9 9.9a44.88 44.88 0 0 0 0.9 5c0.57 2.46 1.6 3.65 4.12 1.6a14.57 14.57 0 0 1 7.5-3c6.18-0.84 6.6-1.5 5.64-7.59-0.83-5.44-4.95-5.69-9.16-5.91z" fill="#030301" p-id="27830"></path><path d="M710.43 282.49c-2.51 2-2.27-1-2.6-1.72-4-8.42-7.87-16.94-11.76-25.44-6.25-13.62-14.18-26.14-23-38.32-9.42-13.06-16.28-27.83-25.8-40.93s-20.91-24.07-35-32.16c-1.14-0.66-2.25-1.36-4-2.42 16.26 0.82 29.45 7 41.12 16.86 3.22 2.73 6.6 5.26 9.9 7.88 1.42 12.86 4.93 24.9 13.52 35 10.33 12.11 18.82 25.25 23.75 40.57 4.44 13.62 9.24 27.12 13.87 40.68z" fill="#FBF493" p-id="27831"></path><path d="M710.43 282.49c-4.63-13.56-9.43-27.06-13.83-40.7-4.93-15.32-13.42-28.46-23.75-40.57-8.59-10.08-12.1-22.12-13.52-35 4 2 6.28 5.69 8.84 9 10 13.16 18.54 27.32 26.93 41.56 4.69 8 6.51 16.69 8.24 25.57 2.08 10.69 4.42 21.33 6.72 32a20.49 20.49 0 0 1 0.37 8.14z" fill="#030301" p-id="27832"></path><path d="M625.55 518.19c1.32-0.29 2.62-0.7 4-0.86 9.84-1.16 9.8-1.14 10.45 8.73a25.59 25.59 0 0 0 1.12 7.5c2 5.07 0.55 8.66-3.89 11.39-0.38 0.49-1.74 0.6-1 1.52 0.52 0.61 1.4 0 2-0.52 18.55-6.21 37.71-7.59 57.1-7.27-0.79 2.66-3 1.66-4.72 1.77-14.26 0.87-28.31 2.69-42 7.1-8.93 2.88-16.1 8.45-24.08 14.45 1.14-5.53 3.72-9.57 5.94-13.62 2.9-5.31 2.94-10.5 1.15-16a8.38 8.38 0 0 1-0.74-2.94c0.32-4.78-0.08-9.13-5.33-11.25z" fill="#C7BD00" p-id="27833"></path><path d="M623.37 461.61c6.2-17.22 5-15.43 23.52-17.1 6.23-0.56 12.56-0.09 18.84 0a55.88 55.88 0 0 1 6.78 1.1l-7.94 1.87c-16.79 0.66-30.42 7.9-41.28 21-1.47-3.05 0.71-4.83 0.08-6.87zM817.07 559.07a16.8 16.8 0 0 0 9.54 2.95c11.83 0.54 22.93-2.23 33.54-7.34 3.66-1.76 7.07-4.09 11.12-4.94-0.7 3.12-3.42 4.58-5.63 6.21-10.87 8-22.72 13.54-36.66 12.23a27.8 27.8 0 0 1-21.1-12.3l-0.09 0.09c3.57-0.4 5.99 2.65 9.28 3.1z" fill="#030301" p-id="27834"></path><path d="M623.37 461.61c0.58 2-1.55 3.82-0.08 6.88 10.86-13.07 24.49-20.31 41.28-21-0.44 2.47-2.82 2.22-4.37 2.87-17.41 7.26-32.31 17.71-43.19 33.39-0.25 0.36-0.78 0.51-2.24 1.42 3.12-8.48 3.35-16.86 8.6-23.56z" fill="#C7BD00" p-id="27835"></path><path d="M605.13 659.27l-7.61 6.62c-1.7-11.28 8.8-22 19.8-20.44 7.35 1.07 14.72 2 22.34 3.06l-7.86 0.69c-10.6-1.2-19.75 1.48-26.67 10.07z" fill="#030301" p-id="27836"></path><path d="M703.5 536.27a50.78 50.78 0 0 1-5.91-1.23c-5-1.65-11.62-1.47-9-10.43 0.91-3.16-1.08-7.26-2.08-10.84-1.78-6.39-1.89-6.36 4.72-7.94C694 511.94 696 518.37 695 525c-0.61 3.89 0.77 5.43 3.57 7.24 1.73 1.14 4.37 1.39 4.93 4.03zM605.13 659.27c6.92-8.59 16.07-11.24 26.67-10.07 0 0.17 0 0.44-0.12 0.48-8.75 3.48-17.37 7.32-26.55 9.59zM702.4 538.44c0.43-0.71 1.64-1 1.23-2.15 1.5-0.06 3.72 0.11 3.18 1.81-0.6 1.9-2.81 1.9-4.41 0.34z" fill="#C7BD00" p-id="27837"></path><path d="M761.9 547.58c-1.94 1.14-3.44-1.08-5.28-0.71a1.31 1.31 0 0 0-0.92-0.25c0-0.33-0.05-0.67-0.06-1 1.93 0 3.89 0 5-2.08-0.2 1.53 0.66 2.74 1.26 4.04z" fill="#030301" p-id="27838"></path><path d="M587.75 404.29a2 2 0 0 1-1.27-1.82l0.37-0.32a1.89 1.89 0 0 1 0.83 2.22z" fill="#FBF493" p-id="27839"></path><path d="M807.88 555.88l-0.37-0.43c0.08 0 0.2 0.07 0.23 0.14a1.17 1.17 0 0 1 0 0.38z" fill="#030301" p-id="27840"></path><path d="M755.64 545.61c0 0.34 0 0.68 0.06 1l-0.79-0.46z" fill="#C7BD00" p-id="27841"></path><path d="M587.68 404.37l0.59 0.42h-0.33a1.71 1.71 0 0 1-0.19-0.46z" fill="#FBF493" p-id="27842"></path><path d="M765 548.56c-1.48 1-2.53 0.65-3.14-1 1.14-0.03 2.39-0.41 3.14 1z" fill="#030301" p-id="27843"></path><path d="M400.54 260.05v1.79l-5.81-1.23a8.68 8.68 0 0 1 5.81-0.56zM438.75 260.78l-0.06-0.01 0.04-0.24 0.02 0.25z" fill="#C7BD00" p-id="27844"></path><path d="M653.26 521.78c4.21 0.21 8.33 0.47 9.21 6 1 6.09 0.54 6.75-5.64 7.59a14.57 14.57 0 0 0-7.5 3c-2.52 2.05-3.55 0.86-4.12-1.6a44.88 44.88 0 0 1-0.9-5c-0.89-7.65 1.25-9.99 8.95-9.99z" fill="#FEFEFE" p-id="27845"></path><path d="M638.2 546c-0.58 0.56-1.46 1.13-2 0.52-0.78-0.92 0.58-1 1-1.52z" fill="#030301" p-id="27846"></path></svg>